<!DOCTYPE svg PUBLIC "-//W3C//DTD SVG 1.1//EN" "http://www.w3.org/Graphics/SVG/1.1/DTD/svg11.dtd">
<!-- Uploaded to: SVG Repo, www.svgrepo.com, Transformed by: SVG Repo Mixer Tools -->
<svg fill="#000000" height="800px" width="800px" version="1.1" id="Capa_1" xmlns="http://www.w3.org/2000/svg" xmlns:xlink="http://www.w3.org/1999/xlink" viewBox="0 0 297 297" xml:space="preserve">
<g id="SVGRepo_bgCarrier" stroke-width="0"/>
<g id="SVGRepo_tracerCarrier" stroke-linecap="round" stroke-linejoin="round"/>
<g id="SVGRepo_iconCarrier"> <path d="M286.966,57.833H104.569c-18.481,0-35.701,5.496-50.12,14.932c-4.36-10.082-14.4-17.157-26.064-17.157 C12.733,55.609,0,68.342,0,83.994c0,13.14,8.977,24.22,21.118,27.438c-5.343,11.632-8.328,24.564-8.328,38.18 c0,50.607,41.172,91.779,91.779,91.779c50.608,0,91.78-41.172,91.78-91.779v-16.659h90.618c5.541,0,10.034-4.493,10.034-10.034 V67.867C297,62.326,292.507,57.833,286.966,57.833z M28.385,75.677c4.586,0,8.317,3.731,8.317,8.317s-3.731,8.317-8.317,8.317 s-8.317-3.731-8.317-8.317S23.799,75.677,28.385,75.677z M276.932,112.886h-90.618c-5.541,0-10.034,4.493-10.034,10.034v26.692 c0,39.541-32.17,71.711-71.712,71.711c-39.541,0-71.711-32.17-71.711-71.711s32.17-71.711,71.711-71.711h8.318v26.668 c0,5.541,4.493,10.034,10.034,10.034s10.034-4.493,10.034-10.034V77.901h143.978V112.886z"/> </g>
</svg>