<!DOCTYPE svg PUBLIC "-//W3C//DTD SVG 1.1//EN" "http://www.w3.org/Graphics/SVG/1.1/DTD/svg11.dtd">
<!-- Uploaded to: SVG Repo, www.svgrepo.com, Transformed by: SVG Repo Mixer Tools -->
<svg fill="#000000" height="800px" width="800px" version="1.1" id="Layer_1" xmlns="http://www.w3.org/2000/svg" xmlns:xlink="http://www.w3.org/1999/xlink" viewBox="0 0 496 496" xml:space="preserve">
<g id="SVGRepo_bgCarrier" stroke-width="0"/>
<g id="SVGRepo_tracerCarrier" stroke-linecap="round" stroke-linejoin="round"/>
<g id="SVGRepo_iconCarrier"> <g> <g> <path d="M0,72v352h496V72H0z M256,217.136c13.768,3.576,24,15.992,24,30.864s-10.232,27.288-24,30.864V217.136z M16,200h16v96H16 V200z M16,312h32V184H16v-24h64v176H16V312z M240,278.864c-13.768-3.576-24-15.992-24-30.864s10.232-27.288,24-30.864V278.864z M240,200.72c-22.664,3.824-40,23.536-40,47.28s17.336,43.448,40,47.28V408H16v-56h80v-58.872c18.856-6.696,32-24.664,32-45.128 s-13.144-38.44-32-45.128V144H16V88h224V200.72z M96,275.648v-55.296c9.64,5.608,16,16.024,16,27.648 C112,259.624,105.64,270.04,96,275.648z M480,296h-16v-96h16V296z M480,184h-32v128h32v24h-64V160h64V184z M480,144h-80v58.872 c-18.856,6.696-32,24.664-32,45.128s13.144,38.44,32,45.128V352h80v56H256V295.28c22.664-3.824,40-23.536,40-47.28 c0-23.744-17.336-43.448-40-47.28V88h224V144z M400,220.352v55.296c-9.64-5.608-16-16.024-16-27.648S390.36,225.96,400,220.352z"/> </g> </g> </g>
</svg>