<!DOCTYPE svg PUBLIC "-//W3C//DTD SVG 1.1//EN" "http://www.w3.org/Graphics/SVG/1.1/DTD/svg11.dtd">
<!-- Uploaded to: SVG Repo, www.svgrepo.com, Transformed by: SVG Repo Mixer Tools -->
<svg width="800px" height="800px" viewBox="0 0 24 24" id="_24x24_On_Light_Insights" data-name="24x24/On Light/Insights" xmlns="http://www.w3.org/2000/svg" fill="#000000">
<g id="SVGRepo_bgCarrier" stroke-width="0"/>
<g id="SVGRepo_tracerCarrier" stroke-linecap="round" stroke-linejoin="round"/>
<g id="SVGRepo_iconCarrier"> <rect id="view-box" width="24" height="24" fill="none"/> <path id="Shape" d="M10.75,1.5A2.25,2.25,0,0,1,13,3.75v9.028h1.5V3.75A3.75,3.75,0,0,0,10.75,0H.75a.75.75,0,0,0,0,1.5C1.669,1.5,2,1.831,2,2.75v11A3.75,3.75,0,0,0,5.75,17.5h8V16h-8A2.25,2.25,0,0,1,3.5,13.75v-11A3.392,3.392,0,0,0,3.285,1.5Z" transform="translate(4.25 3.25)" fill="#000000"/> <path id="Shape-2" data-name="Shape" d="M7.765,17.5A3.294,3.294,0,0,0,10.738,16H7.754C9.307,16,10,15,10,12.749a.751.751,0,0,1,.751-.75h8a.751.751,0,0,1,.75.75v1a3.755,3.755,0,0,1-3.75,3.75ZM10.738,16H15.75A2.253,2.253,0,0,0,18,13.749V13.5H11.472A5.4,5.4,0,0,1,10.738,16ZM7,16.75A.72.72,0,0,1,7.749,16h0v1.5A.719.719,0,0,1,7,16.75ZM.75,5.5A.751.751,0,0,1,0,4.75v-2a2.75,2.75,0,1,1,5.5,0v2a.751.751,0,0,1-.75.75ZM1.5,2.75V4H4V2.75a1.25,1.25,0,1,0-2.5,0Z" transform="translate(2.25 3.25)" fill="#000000"/> </g>
</svg>